<?xml version="1.0" encoding="utf-8"?>
<!-- Generator: Adobe Illustrator 24.2.1, SVG Export Plug-In . SVG Version: 6.00 Build 0)  -->
<svg version="1.1" id="layer" xmlns="http://www.w3.org/2000/svg" xmlns:xlink="http://www.w3.org/1999/xlink" x="0px" y="0px"
	 viewBox="0 0 600 85.3" style="enable-background:new 0 0 600 85.3;" xml:space="preserve">
<style type="text/css">
	.st0{fill:#010101;}
	.st1{fill:#DE2B26;}
	.st2{fill:#FFFFFF;}
</style>
<rect id="XMLID_32_" x="85.4" y="3.8" class="st0" width="511.2" height="77.4"/>
<rect id="XMLID_31_" x="3.8" y="3.8" class="st1" width="77.4" height="77.4"/>
<path id="XMLID_30_" class="st2" d="M50,25.6c-3.5,2.2-8.2,3.5-11.1,4.1c-22.4,5.1-22.7-0.9-22.4-2.8c0.3-2.2,2.8-3.5,2.8-3.5
	c-3.8,5.1,6,5.1,19,2.8c0,0,6.3-0.9,13.6-2.8C51.6,23.4,51.6,24.4,50,25.6"/>
<path id="XMLID_29_" class="st2" d="M49.3,22.2c0,0,14.2-3.2,3.8,3.8C53.1,25.6,57.9,20.6,49.3,22.2"/>
<path id="XMLID_28_" class="st2" d="M39.5,63.9c6-1.3,22.1-4.4,22.4-8.5c0,0,0.6-1.6-0.9-1.9v-3.8c0,0,7.9,0.9,7.9,4.7
	s-7,10.7-26.2,10.1L39.5,63.9z"/>
<path id="XMLID_27_" class="st2" d="M19.3,46.8c0,0-2.5,1.6-2.8,3.5c-0.3,2.2,2.2,7.6,25.6,3.8c18.3-2.8,27.8-8.8,26.5-14.5
	C68,36.8,61,35.8,61,35.8v3.5c0,0,1.3,1.3,1.3,1.9c0,2.8-8.2,6-21.2,8.2C28.5,51.5,15.5,52.2,19.3,46.8"/>
<path id="XMLID_26_" class="st2" d="M19.3,33.9c0,0-2.5,1.6-2.8,3.5c-0.3,2.2,2.5,8.2,25.6,3.8c18.3-3.2,27.8-8.8,26.5-14.5
	C68,23.9,61,22.9,61,22.9v3.5c0,0,1.3,1.3,1.3,1.9c0,2.8-8.2,6-21.2,8.2C28.5,38.9,15.5,39.5,19.3,33.9"/>
<path id="XMLID_25_" class="st2" d="M108.7,43c0-8.2,6.3-13.9,14.5-13.9c6.6,0,10.1,3.8,11.7,7.3l-6,2.8c-0.9-2.2-3.2-3.8-5.7-3.8
	c-4.4,0-7.6,3.5-7.6,7.9s3.2,7.9,7.6,7.9c2.5,0,4.7-1.9,5.7-3.8l6,2.8c-1.6,2.8-5.1,6.6-11.7,6.6C115.1,56.9,108.7,51.2,108.7,43"/>
<path id="XMLID_63_" class="st2" d="M146.7,43c0-8.2,6.3-13.9,14.5-13.9c8.2,0,14.2,5.7,14.2,13.9s-6,13.9-14.2,13.9
	C152.7,56.9,146.7,50.9,146.7,43 M168.5,43c0-4.4-2.8-7.9-7.3-7.9c-4.4,0-7.3,3.5-7.3,7.9s2.8,7.9,7.3,7.9
	C165.3,50.6,168.5,47.1,168.5,43"/>
<polygon id="XMLID_22_" class="st2" points="212.4,56.3 212.4,38.6 205.7,56.3 202.6,56.3 195.9,38.6 195.9,56.3 189,56.3 189,29.4 
	198.5,29.4 204.2,44.3 209.8,29.4 219.3,29.4 219.3,56.3 "/>
<path id="XMLID_59_" class="st2" d="M234.8,56.3V29.4h13.6c6,0,9.5,4.1,9.5,8.8c0,4.7-3.2,8.8-9.5,8.8h-6.6v9.2
	C241.8,56.3,234.8,56.3,234.8,56.3z M250.6,38.3c0-1.9-1.6-2.8-3.5-2.8h-5.4v5.7h5.4C249,41.1,250.6,40.2,250.6,38.3"/>
<path id="XMLID_56_" class="st2" d="M286,56.3l-4.4-9.2h-3.5v9.2h-7V29.4h13.3c6,0,9.5,4.1,9.5,8.8c0,4.7-2.8,7.3-5.4,8.2l5.4,9.8
	C293.9,56.3,286,56.3,286,56.3z M286.6,38.3c0-1.9-1.6-2.8-3.5-2.8h-5.4v5.7h5.4C285.4,41.1,286.6,40.2,286.6,38.3"/>
<polygon id="XMLID_17_" class="st2" points="308.4,56.3 308.4,29.4 328.3,29.4 328.3,35.4 315.4,35.4 315.4,39.5 328,39.5 328,45.9 
	315.4,45.9 315.4,50.3 328.3,50.3 328.3,56.3 "/>
<path id="XMLID_16_" class="st1" d="M344.1,52.5l3.8-5.4c1.9,1.9,5.1,3.5,8.5,3.5c2.2,0,3.8-0.9,3.8-2.2c0-3.5-15.2-0.6-15.2-11.1
	c0-4.4,3.8-8.5,10.7-8.5c4.4,0,8.2,1.3,11.1,3.8l-3.8,5.1c-2.2-1.9-5.1-2.8-7.9-2.8c-1.9,0-2.8,0.6-2.8,1.9
	c0,3.2,15.2,0.9,15.2,10.7c0,5.4-4.1,8.8-11.1,8.8C350.4,56.6,346.7,55,344.1,52.5"/>
<path id="XMLID_15_" class="st2" d="M381.7,52.5l3.8-5.4c1.9,1.9,5.1,3.5,8.5,3.5c2.2,0,3.8-0.9,3.8-2.2c0-3.5-15.2-0.6-15.2-11.1
	c0-4.4,3.8-8.5,10.7-8.5c4.4,0,8.2,1.3,11.1,3.8l-3.8,5.1c-2.2-1.9-5.1-2.8-7.9-2.8c-1.9,0-2.8,0.6-2.8,1.9
	c0,3.2,15.2,0.9,15.2,10.7c0,5.4-4.1,8.8-11.4,8.8C388.4,56.6,384.6,55,381.7,52.5"/>
<path id="XMLID_50_" class="st2" d="M419.6,56.3V29.4h13.6c6,0,9.5,4.1,9.5,8.8c0,4.7-3.2,8.8-9.5,8.8h-6.6v9.2
	C426.6,56.3,419.6,56.3,419.6,56.3z M435.4,38.3c0-1.9-1.6-2.8-3.5-2.8h-5.4v5.7h5.4C434.2,41.1,435.4,40.2,435.4,38.3"/>
<path id="XMLID_47_" class="st2" d="M455.3,43c0-8.2,6.3-13.9,14.5-13.9S484,34.8,484,43s-6,13.9-14.2,13.9S455.3,50.9,455.3,43
	 M477.1,43c0-4.4-2.8-7.9-7.3-7.9c-4.4,0-7.3,3.5-7.3,7.9s2.8,7.9,7.3,7.9C474.3,50.6,477.1,47.1,477.1,43"/>
<path id="XMLID_44_" class="st2" d="M512.8,56.3l-4.4-9.2h-3.5v9.2h-7V29.4h13.6c6,0,9.5,4.1,9.5,8.8c0,4.7-2.8,7.3-5.4,8.2l5.4,9.8
	C521.1,56.3,512.8,56.3,512.8,56.3z M513.5,38.3c0-1.9-1.6-2.8-3.5-2.8h-5.4v5.7h5.4C511.9,41.1,513.5,40.2,513.5,38.3"/>
<polygon id="XMLID_8_" class="st2" points="541.6,56.3 541.6,35.4 534,35.4 534,29.4 556.1,29.4 556.1,35.4 548.5,35.4 548.5,56.3 
	"/>
<path id="XMLID_38_" class="st2" d="M567.5,38c-2.5,0-4.7-2.2-4.7-4.7s2.2-4.7,4.7-4.7s4.7,1.9,4.7,4.7C572.2,35.7,570,38,567.5,38
	 M567.5,29.4c-2.2,0-3.8,1.6-3.8,3.8c0,2.2,1.6,3.8,3.8,3.8s3.8-1.9,3.8-3.8C571.6,31,569.7,29.4,567.5,29.4 M568.8,35.7l-1.3-2.2
	h-0.9v2.2H566v-5.1h2.2c0.9,0,1.6,0.6,1.6,1.6c0,1.3-0.9,1.6-1.3,1.6l1.3,2.2h-0.9L568.8,35.7L568.8,35.7z M568.1,31.3h-1.3v1.9h1.3
	c0.3,0,0.9-0.3,0.9-0.9C569.1,31.6,568.5,31.3,568.1,31.3"/>
<path id="XMLID_34_" class="st2" d="M596.6,81.6H85.4V3.9h511.2V81.6z M3.8,3.8h77.4v77.4H3.8V3.8z M596.6,0H3.8H0v3.8v77.4v4.1h3.8
	h592.4h3.8v-3.8V3.8V0L596.6,0L596.6,0z"/>
</svg>
