<svg version="1.1" baseProfile="tiny" id="Layer_1" xmlns="http://www.w3.org/2000/svg" xmlns:xlink="http://www.w3.org/1999/xlink" x="0px" y="0px" viewBox="0 0 307.5 69" xml:space="preserve" width="132" height="30">
<g>
<path d="m305.06 59.4a.37.37 0 0 1 .06.15c0 .09-.06.12-.21.12h-.16c-.16 0-.16 0-.24-.14l-.87-1.53h-.21l-.18 1.45c0 .19 0 .2-.22.2h-.17c-.17 0-.21 0-.21-.13a.38.38 0 0 1 0-.1l.44-3.58c0-.18 0-.19.22-.19h.59a1.31 1.31 0 0 1 .93.24 1.16 1.16 0 0 1 .38.9 1.18 1.18 0 0 1 -.35.86 1.27 1.27 0 0 1 -.66.31zm-1.57-1.9h.27c.36 0 .54 0 .68-.2a.79.79 0 0 0 .19-.5.54.54 0 0 0 -.31-.52 1.19 1.19 0 0 0 -.43-.06h-.24zm.45-3.17a3.34 3.34 0 1 0 3.33 3.34 3.34 3.34 0 0 0 -3.33-3.34zm0 6.23a2.89 2.89 0 1 1 2.88-2.89 2.89 2.89 0 0 1 -2.88 2.89zm-27.42-32.56v-.75l3.06-24.85c.17-1.34.25-1.42 1.64-1.42h13.1c1.17 0 1.5.21 1.5.92v.76l-.37 3.05c-.17 1.34-.26 1.43-1.64 1.43h-7.43l-.58 4.86h7.2c1.22 0 1.55.21 1.55.92a4.37 4.37 0 0 1 -.08.75l-.38 3.06c-.17 1.34-.25 1.43-1.63 1.43h-7.46l-.58 4.65h7.22c1.21 0 1.55.21 1.55.92a3.38 3.38 0 0 1 -.09.75l-.37 3.06c-.17 1.34-.25 1.43-1.64 1.43h-13.09c-1.14.03-1.48-.23-1.48-.97zm-30.32 1h4.47c1.38 0 1.46-.09 1.63-1.43 0 0 1.42-12.79 1.79-16.35l9.91 16.72c.63 1 .63 1 1.76 1h5.62c1.38 0 1.47-.09 1.63-1.43l2.99-24.83a6.05 6.05 0 0 0 0-.76c0-.71-.33-.92-1.55-.92h-4.44c-1.38 0-1.46.08-1.63 1.42 0 0-1.11 9.42-2 15.94-2.49-4.36-9.58-16.36-9.58-16.36-.58-1-.58-1-1.76-1h-5.62c-1.38 0-1.46.08-1.63 1.42l-3.06 24.85v.75c-.04.72.27.98 1.47.98zm-18 .31c-9.1 0-14.93-5.74-14.44-14.17.54-8.81 7.44-14.97 16.71-14.97 8.76 0 14.3 5.57 13.82 13.88a17.82 17.82 0 0 1 -3.57 9.55c-2.9 3.69-7.21 5.66-12.49 5.66zm.25-7.13a7.74 7.74 0 0 0 8.09-7.49c.26-4.4-2.51-7.34-6.83-7.34a8 8 0 0 0 -8.25 7.53c-.22 4.32 2.54 7.25 7.02 7.25zm69.93 21.82h-7.21l.59-4.82h7.43c1.38 0 1.46-.08 1.63-1.42l.38-3.06v-.75c0-.72-.34-.93-1.51-.93h-13.1c-1.38 0-1.46.09-1.63 1.43l-3.06 24.84v.76c0 .71.33.92 1.51.92h13.1c1.38 0 1.46-.08 1.63-1.42l.38-3.06a3.93 3.93 0 0 0 .08-.76c0-.71-.33-.92-1.55-.92h-7.22l.59-4.65h7.41c1.38 0 1.47-.08 1.64-1.42l.37-3.06a4 4 0 0 0 .09-.76c0-.68-.34-.92-1.55-.92zm-18.49-11h-4.44c-1.38 0-1.47.09-1.64 1.43 0 0-1.11 9.41-1.95 15.93-2.6-4.38-9.68-16.35-9.68-16.35-.59-1-.59-1-1.76-1h-5.62c-1.39 0-1.47.09-1.64 1.43l-3.06 24.88v.76c0 .71.34.92 1.51.92h4.39c1.38 0 1.47-.08 1.63-1.42 0 0 1.43-12.79 1.79-16.36l9.9 16.78c.63 1 .63 1 1.76 1h5.62c1.39 0 1.47-.08 1.64-1.42l3.06-24.85a6 6 0 0 0 0-.75c.04-.72-.3-.93-1.51-.93zm-30.22 13.1a17.86 17.86 0 0 1 -3.58 9.56c-2.9 3.69-7.2 5.66-12.49 5.66-9.1 0-14.92-5.75-14.43-14.17.51-8.77 7.4-14.93 16.67-14.93 8.76 0 14.31 5.58 13.83 13.88zm-14.55-6.74a8 8 0 0 0 -8.25 7.53c-.26 4.36 2.55 7.29 7 7.29a7.74 7.74 0 0 0 8.13-7.49c.2-4.4-2.56-7.33-6.88-7.33zm-104.12-12.84a30.27 30.27 0 0 1 -4.25 2.33 31.59 31.59 0 0 1 -5.17 1.34c-.75.13-3.91.56-3.94.57-.82.13-1.72.27-2.85.42-1.41.2-3.13.45-5.41.81l-.71.12a39.72 39.72 0 0 0 -9.67 2.42 34.29 34.29 0 0 0 -3.6 1.57l-.18.1-1.22.69c-1 .57-2.59 1.49-4 2.18a2.24 2.24 0 0 1 -1.76.23 2.29 2.29 0 0 1 -1.52-.92c-1-1.2-2.09-2.69-2.74-3.61-.36-.5-.64-.88-.81-1.13l-.13-.15a31.67 31.67 0 0 0 -2.68-2.92 39.36 39.36 0 0 0 -7.8-6.12l-.59-.4c-1.94-1.25-3.42-2.18-4.62-2.93l-2.35-1.55s-2.74-1.7-3.37-2.13a30.61 30.61 0 0 1 -4.18-3.33 29.74 29.74 0 0 1 -2.93-3.85c-.12-.21.1-.5.3-.65a.82.82 0 0 1 .54-.14.32.32 0 0 1 .17.1c0 .06.18.21.35.43.57.69 1.75 2.12 2.59 3a27.2 27.2 0 0 0 5.13 3.8l.34.21c.39.27 1.88 1.08 2.5 1.4 1.56.79 3.43 1.59 5.13 2.29s3.56 1.37 4.9 2.06l.23.11a41.44 41.44 0 0 1 5.76 3.77 56.16 56.16 0 0 0 5.77 3.49 6.66 6.66 0 0 0 3.84.82 54.34 54.34 0 0 0 6.7-.85 42.61 42.61 0 0 1 6.79-1.1h.25c1.51-.08 3.36 0 5.32.12s3.87.08 5.62 0c.7 0 2.38-.18 2.85-.26l.4-.05a27.07 27.07 0 0 0 6.26-1.39c1.12-.44 2.78-1.28 3.58-1.68l.5-.25a.3.3 0 0 1 .19 0 .76.76 0 0 1 .44.35c.12.16.2.54.03.68zm86.44 32.22-10.19-56.1a2 2 0 0 0 -2-1.64h-13.6c-2.44 0-2.67.06-3.46 1.44l-.42.81-25.13 44-10-15.72 21.36-26.29a4.56 4.56 0 0 0 1.32-2.66c0-1.18-.6-1.58-3.23-1.58h-11.24c-1.69 0-1.85.1-3.24 1.8l-19.79 24.29 4.09-22.58a8.91 8.91 0 0 0 .28-1.62c.09-1.54-.61-1.89-3.19-1.89h-9.1c-3 0-3.17.08-3.7 3l-3.71 20.65c-1.26-14.95-12.49-24.65-29.4-24.65-12.74 0-23.38 5.47-29.61 14.37q.54.36 1.14.72l.39.24c.26.17 1.61.93 2.3 1.28 1.49.75 3.29 1.56 5 2.21l.12.05a53.35 53.35 0 0 1 5 2.09l.2.1h.06a18 18 0 0 1 14.08-6.32c8.11 0 13.71 4.74 14.77 12.18 1.38 0 2.94.05 4.58.13h.15c1.77.08 3.74.08 5.42 0 .76 0 2.3-.17 2.62-.23l.45-.06a24.15 24.15 0 0 0 5.77-1.27c1-.41 2.65-1.22 3.42-1.6l.35-.18.1-.05.18-.09a2.34 2.34 0 0 1 1.36-.12 2.76 2.76 0 0 1 1.78 1.33 2.47 2.47 0 0 1 -.59 3.33 31.67 31.67 0 0 1 -4.68 2.56 34.11 34.11 0 0 1 -5.53 1.44c-.53.09-2 .3-3.51.51l-.47.06c-.81.14-1.73.27-2.89.44-1.35.19-3.05.43-5.36.79l-.68.12c-1.19.21-2.14.36-2.94.51-2 7.63-8.54 12.62-17.08 12.62-9.69 0-15.82-6.42-15.26-15.95a18.84 18.84 0 0 1 .5-3.32c-.73-.5-1.59-1.07-2.72-1.82l-.59-.4c-1.94-1.26-3.4-2.18-4.57-2.91-1-.61-1.78-1.11-2.46-1.57l-.42-.19c-1.29-.8-2.54-1.59-3-1.89a33.62 33.62 0 0 1 -4.47-3.58 31.8 31.8 0 0 1 -3.22-4.23 2.48 2.48 0 0 1 .81-3.3 2.79 2.79 0 0 1 2.15-.5 2.35 2.35 0 0 1 1.26.69 1.07 1.07 0 0 1 .14.16l.06.08.26.31c.54.66 1.68 2 2.46 2.84a16.88 16.88 0 0 0 2 1.73l1.58-8.79.23-1.63c.18-1.48-.61-1.89-3.23-1.89h-9.35c-3 0-3.17.08-3.7 3l-3.36 18.85h-21.57l3.32-18.33a9.08 9.08 0 0 0 .28-1.63c.09-1.54-.61-1.89-3.23-1.89h-9.29c-3 0-3.17.08-3.7 3l-9.71 53.54-.19 1.62c-.08 1.54.61 1.84 3.14 1.84h9.29c3 0 3.17 0 3.7-2.92l4-21.95h21.56l-3.86 21.41a8 8 0 0 0 -.28 1.62c-.08 1.54.88 1.84 3.5 1.84h9c3 0 3.18 0 3.71-2.92l3.84-21.2c1.4 15.12 13.23 25.12 30.73 25.12 11.25 0 20.43-4.2 26.61-12.06a35 35 0 0 0 4.3-7.22l-2.66 14.82-.18 1.62c-.18 1.54.51 1.84 3 1.84h9.06c3 0 3.18 0 3.71-2.92l4.34-23.93a79.18 79.18 0 0 0 4.06 7.76l10.47 17.25c1.1 1.76 1.23 1.85 2.95 1.84h15.88c2.53 0 2.72.06 3.55-1.48l.43-.81 4.53-8.58h21.12l1.29 9.43a1.67 1.67 0 0 0 1.65 1.44h13.09a1.92 1.92 0 0 0 1.89-2.26zm-32.44-20.62 9.58-19.12 2.61 19.12z" fill="#0082c8"></path>
</g>
</svg>
